<mxfile host="app.diagrams.net" modified="2021-11-30T04:23:31.668Z" agent="5.0 (Macintosh)" etag="CYD7FNplGzoFHox9nI2e" version="15.8.2" type="github">
  <diagram id="_nXqwIl1R0OowHMai2If" name="Page-1">
    <mxGraphModel dx="1892" dy="1280" grid="1" gridSize="10" guides="1" tooltips="1" connect="1" arrows="1" fold="1" page="1" pageScale="1" pageWidth="850" pageHeight="1100" math="0" shadow="0">
      <root>
        <mxCell id="0" />
        <mxCell id="1" parent="0" />
        <mxCell id="JVa2_jhk8D2qSj3l92_B-1" value="" style="rounded=0;whiteSpace=wrap;html=1;" vertex="1" parent="1">
          <mxGeometry x="280" y="40" width="280" height="1050" as="geometry" />
        </mxCell>
        <mxCell id="JVa2_jhk8D2qSj3l92_B-2" value="" style="rounded=0;whiteSpace=wrap;html=1;" vertex="1" parent="1">
          <mxGeometry x="560" y="40" width="280" height="1050" as="geometry" />
        </mxCell>
        <mxCell id="JVa2_jhk8D2qSj3l92_B-3" value="" style="rounded=0;whiteSpace=wrap;html=1;" vertex="1" parent="1">
          <mxGeometry y="40" width="280" height="1050" as="geometry" />
        </mxCell>
        <mxCell id="JVa2_jhk8D2qSj3l92_B-4" value="&lt;font style=&quot;font-size: 21px&quot;&gt;Sistema&lt;/font&gt;" style="rounded=0;whiteSpace=wrap;html=1;" vertex="1" parent="1">
          <mxGeometry x="280" y="10" width="280" height="30" as="geometry" />
        </mxCell>
        <mxCell id="JVa2_jhk8D2qSj3l92_B-5" value="&lt;font style=&quot;font-size: 21px&quot;&gt;Administrador&lt;/font&gt;" style="rounded=0;whiteSpace=wrap;html=1;" vertex="1" parent="1">
          <mxGeometry x="560" y="10" width="280" height="30" as="geometry" />
        </mxCell>
        <mxCell id="JVa2_jhk8D2qSj3l92_B-6" value="&lt;font style=&quot;font-size: 21px&quot;&gt;Usuario&lt;/font&gt;" style="rounded=0;whiteSpace=wrap;html=1;" vertex="1" parent="1">
          <mxGeometry y="10" width="280" height="30" as="geometry" />
        </mxCell>
        <mxCell id="JVa2_jhk8D2qSj3l92_B-13" value="" style="edgeStyle=orthogonalEdgeStyle;rounded=0;orthogonalLoop=1;jettySize=auto;html=1;fontSize=21;strokeColor=#000000;entryX=0.5;entryY=0;entryDx=0;entryDy=0;" edge="1" parent="1" source="JVa2_jhk8D2qSj3l92_B-7" target="JVa2_jhk8D2qSj3l92_B-10">
          <mxGeometry relative="1" as="geometry">
            <mxPoint x="135" y="120" as="targetPoint" />
          </mxGeometry>
        </mxCell>
        <mxCell id="JVa2_jhk8D2qSj3l92_B-7" value="" style="ellipse;whiteSpace=wrap;html=1;fontSize=21;fillColor=#000000;" vertex="1" parent="1">
          <mxGeometry x="125" y="40" width="20" height="20" as="geometry" />
        </mxCell>
        <mxCell id="JVa2_jhk8D2qSj3l92_B-18" style="edgeStyle=orthogonalEdgeStyle;rounded=0;orthogonalLoop=1;jettySize=auto;html=1;exitX=0.25;exitY=1;exitDx=0;exitDy=0;entryX=0.5;entryY=0;entryDx=0;entryDy=0;fontSize=12;strokeColor=#000000;" edge="1" parent="1" source="JVa2_jhk8D2qSj3l92_B-10" target="JVa2_jhk8D2qSj3l92_B-14">
          <mxGeometry relative="1" as="geometry" />
        </mxCell>
        <mxCell id="JVa2_jhk8D2qSj3l92_B-19" style="edgeStyle=orthogonalEdgeStyle;rounded=0;orthogonalLoop=1;jettySize=auto;html=1;exitX=0.75;exitY=1;exitDx=0;exitDy=0;fontSize=12;strokeColor=#000000;" edge="1" parent="1" source="JVa2_jhk8D2qSj3l92_B-10" target="JVa2_jhk8D2qSj3l92_B-16">
          <mxGeometry relative="1" as="geometry" />
        </mxCell>
        <mxCell id="JVa2_jhk8D2qSj3l92_B-10" value="" style="rounded=0;whiteSpace=wrap;html=1;fontSize=21;fillColor=#000000;" vertex="1" parent="1">
          <mxGeometry x="25" y="90" width="220" height="10" as="geometry" />
        </mxCell>
        <mxCell id="JVa2_jhk8D2qSj3l92_B-21" style="edgeStyle=orthogonalEdgeStyle;rounded=0;orthogonalLoop=1;jettySize=auto;html=1;exitX=0.5;exitY=1;exitDx=0;exitDy=0;entryX=0.25;entryY=0;entryDx=0;entryDy=0;fontSize=12;strokeColor=#000000;" edge="1" parent="1" source="JVa2_jhk8D2qSj3l92_B-14" target="JVa2_jhk8D2qSj3l92_B-17">
          <mxGeometry relative="1" as="geometry" />
        </mxCell>
        <mxCell id="JVa2_jhk8D2qSj3l92_B-14" value="&lt;font style=&quot;font-size: 12px&quot;&gt;Ingresa Correo Institucional&lt;/font&gt;" style="rounded=0;whiteSpace=wrap;html=1;fontSize=21;fillColor=#FFFFFF;" vertex="1" parent="1">
          <mxGeometry x="15" y="120" width="110" height="50" as="geometry" />
        </mxCell>
        <mxCell id="JVa2_jhk8D2qSj3l92_B-22" style="edgeStyle=orthogonalEdgeStyle;rounded=0;orthogonalLoop=1;jettySize=auto;html=1;exitX=0.5;exitY=1;exitDx=0;exitDy=0;entryX=0.75;entryY=0;entryDx=0;entryDy=0;fontSize=12;strokeColor=#000000;" edge="1" parent="1" source="JVa2_jhk8D2qSj3l92_B-16" target="JVa2_jhk8D2qSj3l92_B-17">
          <mxGeometry relative="1" as="geometry" />
        </mxCell>
        <mxCell id="JVa2_jhk8D2qSj3l92_B-16" value="&lt;font style=&quot;font-size: 12px&quot;&gt;Ingresa Contraseña&lt;br&gt;&lt;/font&gt;" style="rounded=0;whiteSpace=wrap;html=1;fontSize=21;fillColor=#FFFFFF;" vertex="1" parent="1">
          <mxGeometry x="135" y="120" width="110" height="50" as="geometry" />
        </mxCell>
        <mxCell id="JVa2_jhk8D2qSj3l92_B-24" style="edgeStyle=orthogonalEdgeStyle;rounded=0;orthogonalLoop=1;jettySize=auto;html=1;exitX=0.5;exitY=1;exitDx=0;exitDy=0;fontSize=12;strokeColor=#000000;entryX=0;entryY=0.5;entryDx=0;entryDy=0;" edge="1" parent="1" source="JVa2_jhk8D2qSj3l92_B-17" target="JVa2_jhk8D2qSj3l92_B-23">
          <mxGeometry relative="1" as="geometry" />
        </mxCell>
        <mxCell id="JVa2_jhk8D2qSj3l92_B-17" value="" style="rounded=0;whiteSpace=wrap;html=1;fontSize=21;fillColor=#000000;" vertex="1" parent="1">
          <mxGeometry x="25" y="190" width="220" height="10" as="geometry" />
        </mxCell>
        <mxCell id="JVa2_jhk8D2qSj3l92_B-26" value="" style="edgeStyle=orthogonalEdgeStyle;rounded=0;orthogonalLoop=1;jettySize=auto;html=1;fontSize=12;strokeColor=#000000;" edge="1" parent="1" source="JVa2_jhk8D2qSj3l92_B-23" target="JVa2_jhk8D2qSj3l92_B-25">
          <mxGeometry relative="1" as="geometry" />
        </mxCell>
        <mxCell id="JVa2_jhk8D2qSj3l92_B-23" value="&lt;font style=&quot;font-size: 12px&quot;&gt;Valida usuario&lt;/font&gt;" style="rounded=0;whiteSpace=wrap;html=1;fontSize=21;fillColor=#FFFFFF;" vertex="1" parent="1">
          <mxGeometry x="345" y="210" width="110" height="50" as="geometry" />
        </mxCell>
        <mxCell id="JVa2_jhk8D2qSj3l92_B-27" style="edgeStyle=orthogonalEdgeStyle;rounded=0;orthogonalLoop=1;jettySize=auto;html=1;exitX=1;exitY=0.5;exitDx=0;exitDy=0;entryX=1;entryY=0.5;entryDx=0;entryDy=0;fontSize=12;strokeColor=#000000;" edge="1" parent="1" source="JVa2_jhk8D2qSj3l92_B-25" target="JVa2_jhk8D2qSj3l92_B-10">
          <mxGeometry relative="1" as="geometry">
            <Array as="points">
              <mxPoint x="505" y="305" />
              <mxPoint x="505" y="95" />
            </Array>
          </mxGeometry>
        </mxCell>
        <mxCell id="JVa2_jhk8D2qSj3l92_B-38" style="edgeStyle=orthogonalEdgeStyle;rounded=0;orthogonalLoop=1;jettySize=auto;html=1;exitX=0;exitY=0.5;exitDx=0;exitDy=0;entryX=1;entryY=0.5;entryDx=0;entryDy=0;fontSize=12;strokeColor=#000000;" edge="1" parent="1" source="JVa2_jhk8D2qSj3l92_B-25" target="JVa2_jhk8D2qSj3l92_B-29">
          <mxGeometry relative="1" as="geometry" />
        </mxCell>
        <mxCell id="JVa2_jhk8D2qSj3l92_B-25" value="" style="rhombus;whiteSpace=wrap;html=1;fontSize=12;fillColor=#FFFFFF;" vertex="1" parent="1">
          <mxGeometry x="380" y="285" width="40" height="40" as="geometry" />
        </mxCell>
        <mxCell id="JVa2_jhk8D2qSj3l92_B-28" value="Si el correo/contraseña inválidos" style="text;html=1;strokeColor=none;fillColor=none;align=center;verticalAlign=middle;whiteSpace=wrap;rounded=0;fontSize=12;" vertex="1" parent="1">
          <mxGeometry x="285" y="90" width="190" height="30" as="geometry" />
        </mxCell>
        <mxCell id="JVa2_jhk8D2qSj3l92_B-29" value="" style="rounded=0;whiteSpace=wrap;html=1;fontSize=21;fillColor=#000000;" vertex="1" parent="1">
          <mxGeometry x="20" y="300" width="220" height="10" as="geometry" />
        </mxCell>
        <mxCell id="JVa2_jhk8D2qSj3l92_B-40" value="" style="edgeStyle=orthogonalEdgeStyle;rounded=0;orthogonalLoop=1;jettySize=auto;html=1;fontSize=12;strokeColor=#000000;" edge="1" parent="1" source="JVa2_jhk8D2qSj3l92_B-30" target="JVa2_jhk8D2qSj3l92_B-39">
          <mxGeometry relative="1" as="geometry" />
        </mxCell>
        <mxCell id="JVa2_jhk8D2qSj3l92_B-30" value="" style="rounded=0;whiteSpace=wrap;html=1;fontSize=21;fillColor=#000000;" vertex="1" parent="1">
          <mxGeometry x="20" y="420" width="220" height="10" as="geometry" />
        </mxCell>
        <mxCell id="JVa2_jhk8D2qSj3l92_B-31" value="&lt;font style=&quot;font-size: 12px&quot;&gt;Foto perfil&lt;/font&gt;" style="rounded=0;whiteSpace=wrap;html=1;fontSize=21;fillColor=#FFFFFF;" vertex="1" parent="1">
          <mxGeometry y="320" width="60" height="40" as="geometry" />
        </mxCell>
        <mxCell id="JVa2_jhk8D2qSj3l92_B-32" value="&lt;p style=&quot;line-height: 0.7&quot;&gt;&lt;font style=&quot;font-size: 12px&quot;&gt;Nombre Completo&lt;/font&gt;&lt;/p&gt;" style="rounded=0;whiteSpace=wrap;html=1;fontSize=21;fillColor=#FFFFFF;" vertex="1" parent="1">
          <mxGeometry x="70" y="320" width="60" height="40" as="geometry" />
        </mxCell>
        <mxCell id="JVa2_jhk8D2qSj3l92_B-33" value="&lt;p style=&quot;line-height: 0.8&quot;&gt;&lt;font style=&quot;font-size: 12px&quot;&gt;Identidad Sexual&lt;/font&gt;&lt;br&gt;&lt;/p&gt;" style="rounded=0;whiteSpace=wrap;html=1;fontSize=21;fillColor=#FFFFFF;" vertex="1" parent="1">
          <mxGeometry x="140" y="320" width="60" height="40" as="geometry" />
        </mxCell>
        <mxCell id="JVa2_jhk8D2qSj3l92_B-34" value="&lt;p style=&quot;line-height: 0.6&quot;&gt;&lt;font style=&quot;font-size: 12px&quot;&gt;Lugar Intercambio&lt;/font&gt;&lt;br&gt;&lt;/p&gt;" style="rounded=0;whiteSpace=wrap;html=1;fontSize=21;fillColor=#FFFFFF;" vertex="1" parent="1">
          <mxGeometry x="210" y="320" width="60" height="40" as="geometry" />
        </mxCell>
        <mxCell id="JVa2_jhk8D2qSj3l92_B-35" value="&lt;font style=&quot;font-size: 12px&quot;&gt;Campus&lt;/font&gt;" style="rounded=0;whiteSpace=wrap;html=1;fontSize=21;fillColor=#FFFFFF;" vertex="1" parent="1">
          <mxGeometry x="30" y="370" width="60" height="40" as="geometry" />
        </mxCell>
        <mxCell id="JVa2_jhk8D2qSj3l92_B-36" value="&lt;font style=&quot;font-size: 12px&quot;&gt;Carrera&lt;/font&gt;" style="rounded=0;whiteSpace=wrap;html=1;fontSize=21;fillColor=#FFFFFF;" vertex="1" parent="1">
          <mxGeometry x="110" y="370" width="60" height="40" as="geometry" />
        </mxCell>
        <mxCell id="JVa2_jhk8D2qSj3l92_B-37" value="&lt;font style=&quot;font-size: 12px&quot;&gt;Semestre&lt;/font&gt;" style="rounded=0;whiteSpace=wrap;html=1;fontSize=21;fillColor=#FFFFFF;" vertex="1" parent="1">
          <mxGeometry x="190" y="370" width="60" height="40" as="geometry" />
        </mxCell>
        <mxCell id="JVa2_jhk8D2qSj3l92_B-42" value="" style="edgeStyle=orthogonalEdgeStyle;rounded=0;orthogonalLoop=1;jettySize=auto;html=1;fontSize=12;strokeColor=#000000;" edge="1" parent="1" source="JVa2_jhk8D2qSj3l92_B-39" target="JVa2_jhk8D2qSj3l92_B-41">
          <mxGeometry relative="1" as="geometry" />
        </mxCell>
        <mxCell id="JVa2_jhk8D2qSj3l92_B-39" value="&lt;font style=&quot;font-size: 12px&quot;&gt;Crea Perfil&lt;br&gt;&lt;/font&gt;" style="rounded=0;whiteSpace=wrap;html=1;fontSize=21;fillColor=#FFFFFF;" vertex="1" parent="1">
          <mxGeometry x="345" y="400" width="110" height="50" as="geometry" />
        </mxCell>
        <mxCell id="JVa2_jhk8D2qSj3l92_B-55" style="edgeStyle=orthogonalEdgeStyle;rounded=0;orthogonalLoop=1;jettySize=auto;html=1;exitX=0;exitY=0.5;exitDx=0;exitDy=0;entryX=0;entryY=0.5;entryDx=0;entryDy=0;entryPerimeter=0;fontSize=12;strokeColor=#000000;" edge="1" parent="1" source="JVa2_jhk8D2qSj3l92_B-41" target="JVa2_jhk8D2qSj3l92_B-46">
          <mxGeometry relative="1" as="geometry" />
        </mxCell>
        <mxCell id="JVa2_jhk8D2qSj3l92_B-41" value="&lt;font style=&quot;font-size: 12px&quot;&gt;Despliega página de Inicio&lt;/font&gt;" style="rounded=0;whiteSpace=wrap;html=1;fontSize=21;fillColor=#FFFFFF;" vertex="1" parent="1">
          <mxGeometry x="345" y="480" width="110" height="50" as="geometry" />
        </mxCell>
        <mxCell id="JVa2_jhk8D2qSj3l92_B-43" value="Son válidos" style="text;html=1;strokeColor=none;fillColor=none;align=center;verticalAlign=middle;whiteSpace=wrap;rounded=0;fontSize=12;" vertex="1" parent="1">
          <mxGeometry x="285" y="280" width="85" height="30" as="geometry" />
        </mxCell>
        <mxCell id="JVa2_jhk8D2qSj3l92_B-45" value="" style="strokeWidth=2;html=1;shape=mxgraph.flowchart.annotation_2;align=left;labelPosition=right;pointerEvents=1;fontSize=12;fillColor=#FFFFFF;" vertex="1" parent="1">
          <mxGeometry x="10" y="450" width="15" height="110" as="geometry" />
        </mxCell>
        <mxCell id="JVa2_jhk8D2qSj3l92_B-65" style="edgeStyle=orthogonalEdgeStyle;rounded=0;orthogonalLoop=1;jettySize=auto;html=1;exitX=0.5;exitY=0;exitDx=0;exitDy=0;exitPerimeter=0;entryX=0;entryY=0.5;entryDx=0;entryDy=0;entryPerimeter=0;fontSize=12;strokeColor=#000000;" edge="1" parent="1" source="JVa2_jhk8D2qSj3l92_B-46" target="JVa2_jhk8D2qSj3l92_B-57">
          <mxGeometry relative="1" as="geometry" />
        </mxCell>
        <mxCell id="JVa2_jhk8D2qSj3l92_B-46" value="" style="strokeWidth=2;html=1;shape=mxgraph.flowchart.annotation_2;align=left;labelPosition=right;pointerEvents=1;fontSize=12;fillColor=#FFFFFF;rotation=-180;" vertex="1" parent="1">
          <mxGeometry x="240" y="450" width="20" height="110" as="geometry" />
        </mxCell>
        <mxCell id="JVa2_jhk8D2qSj3l92_B-47" value="&lt;p style=&quot;line-height: 0.8&quot;&gt;&lt;font style=&quot;font-size: 12px ; line-height: 0.7&quot;&gt;Navegar plataforma&lt;/font&gt;&lt;br&gt;&lt;/p&gt;" style="rounded=0;whiteSpace=wrap;html=1;fontSize=21;fillColor=#FFFFFF;strokeColor=#FF3333;" vertex="1" parent="1">
          <mxGeometry x="25" y="460" width="60" height="40" as="geometry" />
        </mxCell>
        <mxCell id="JVa2_jhk8D2qSj3l92_B-48" value="&lt;p style=&quot;line-height: 0.8&quot;&gt;&lt;font style=&quot;font-size: 12px ; line-height: 0.7&quot;&gt;Checar perfiles&lt;/font&gt;&lt;/p&gt;" style="rounded=0;whiteSpace=wrap;html=1;fontSize=21;fillColor=#FFFFFF;strokeColor=#FF3333;" vertex="1" parent="1">
          <mxGeometry x="105" y="460" width="60" height="40" as="geometry" />
        </mxCell>
        <mxCell id="JVa2_jhk8D2qSj3l92_B-49" value="&lt;p style=&quot;line-height: 0.7&quot;&gt;&lt;font style=&quot;font-size: 12px&quot;&gt;Abrir foros/chats&lt;/font&gt;&lt;br&gt;&lt;/p&gt;" style="rounded=0;whiteSpace=wrap;html=1;fontSize=21;fillColor=#FFFFFF;strokeColor=#3333FF;" vertex="1" parent="1">
          <mxGeometry x="180" y="460" width="60" height="40" as="geometry" />
        </mxCell>
        <mxCell id="JVa2_jhk8D2qSj3l92_B-50" value="&lt;p style=&quot;line-height: 0.8&quot;&gt;&lt;font style=&quot;font-size: 12px ; line-height: 0.7&quot;&gt;Agregar imagenes&lt;br&gt;&lt;/font&gt;&lt;/p&gt;" style="rounded=0;whiteSpace=wrap;html=1;fontSize=21;fillColor=#FFFFFF;strokeColor=#009900;" vertex="1" parent="1">
          <mxGeometry x="25" y="510" width="60" height="40" as="geometry" />
        </mxCell>
        <mxCell id="JVa2_jhk8D2qSj3l92_B-51" value="&lt;p style=&quot;line-height: 0.8&quot;&gt;&lt;font style=&quot;font-size: 12px ; line-height: 0.7&quot;&gt;Escribir mesajes&lt;br&gt;&lt;/font&gt;&lt;/p&gt;" style="rounded=0;whiteSpace=wrap;html=1;fontSize=21;fillColor=#FFFFFF;strokeColor=#FF00FF;" vertex="1" parent="1">
          <mxGeometry x="105" y="510" width="60" height="40" as="geometry" />
        </mxCell>
        <mxCell id="JVa2_jhk8D2qSj3l92_B-52" value="&lt;p style=&quot;line-height: 0.8&quot;&gt;&lt;font style=&quot;font-size: 12px ; line-height: 0.7&quot;&gt;Checar mapa&lt;br&gt;&lt;/font&gt;&lt;/p&gt;" style="rounded=0;whiteSpace=wrap;html=1;fontSize=21;fillColor=#FFFFFF;strokeColor=#FFFF00;" vertex="1" parent="1">
          <mxGeometry x="180" y="510" width="60" height="40" as="geometry" />
        </mxCell>
        <mxCell id="JVa2_jhk8D2qSj3l92_B-57" value="" style="strokeWidth=2;html=1;shape=mxgraph.flowchart.annotation_2;align=left;labelPosition=right;pointerEvents=1;fontSize=12;fillColor=#FFFFFF;" vertex="1" parent="1">
          <mxGeometry x="295" y="570" width="15" height="110" as="geometry" />
        </mxCell>
        <mxCell id="JVa2_jhk8D2qSj3l92_B-58" value="" style="strokeWidth=2;html=1;shape=mxgraph.flowchart.annotation_2;align=left;labelPosition=right;pointerEvents=1;fontSize=12;fillColor=#FFFFFF;rotation=-180;" vertex="1" parent="1">
          <mxGeometry x="525" y="570" width="20" height="110" as="geometry" />
        </mxCell>
        <mxCell id="JVa2_jhk8D2qSj3l92_B-59" value="&lt;p style=&quot;line-height: 0.8&quot;&gt;&lt;font style=&quot;font-size: 12px ; line-height: 0.7&quot;&gt;Re-direcionar&lt;/font&gt;&lt;br&gt;&lt;/p&gt;" style="rounded=0;whiteSpace=wrap;html=1;fontSize=21;fillColor=#FFFFFF;strokeColor=#FF3333;" vertex="1" parent="1">
          <mxGeometry x="310" y="580" width="60" height="40" as="geometry" />
        </mxCell>
        <mxCell id="JVa2_jhk8D2qSj3l92_B-60" value="&lt;p style=&quot;line-height: 0.8&quot;&gt;&lt;font style=&quot;font-size: 12px ; line-height: 0.7&quot;&gt;Valida y crea foros&lt;br&gt;&lt;/font&gt;&lt;/p&gt;" style="rounded=0;whiteSpace=wrap;html=1;fontSize=21;fillColor=#FFFFFF;strokeColor=#3333FF;" vertex="1" parent="1">
          <mxGeometry x="390" y="580" width="60" height="40" as="geometry" />
        </mxCell>
        <mxCell id="JVa2_jhk8D2qSj3l92_B-61" value="&lt;p style=&quot;line-height: 0.5&quot;&gt;&lt;font style=&quot;font-size: 12px&quot;&gt;Salir o bloquear chats&lt;/font&gt;&lt;br&gt;&lt;/p&gt;" style="rounded=0;whiteSpace=wrap;html=1;fontSize=21;fillColor=#FFFFFF;strokeColor=#3333FF;" vertex="1" parent="1">
          <mxGeometry x="465" y="580" width="60" height="40" as="geometry" />
        </mxCell>
        <mxCell id="JVa2_jhk8D2qSj3l92_B-62" value="&lt;p style=&quot;line-height: 0.8&quot;&gt;&lt;font style=&quot;font-size: 12px ; line-height: 0.7&quot;&gt;Publicar imagenes&lt;br&gt;&lt;/font&gt;&lt;/p&gt;" style="rounded=0;whiteSpace=wrap;html=1;fontSize=21;fillColor=#FFFFFF;strokeColor=#009900;" vertex="1" parent="1">
          <mxGeometry x="310" y="630" width="60" height="40" as="geometry" />
        </mxCell>
        <mxCell id="JVa2_jhk8D2qSj3l92_B-63" value="&lt;p style=&quot;line-height: 0.8&quot;&gt;&lt;font style=&quot;font-size: 12px ; line-height: 0.7&quot;&gt;Manda mesajes&lt;br&gt;&lt;/font&gt;&lt;/p&gt;" style="rounded=0;whiteSpace=wrap;html=1;fontSize=21;fillColor=#FFFFFF;strokeColor=#FF00FF;" vertex="1" parent="1">
          <mxGeometry x="390" y="630" width="60" height="40" as="geometry" />
        </mxCell>
        <mxCell id="JVa2_jhk8D2qSj3l92_B-64" value="&lt;p style=&quot;line-height: 0.5&quot;&gt;&lt;font style=&quot;font-size: 12px ; line-height: 0.7&quot;&gt;Enlaza Google Maps&lt;br&gt;&lt;/font&gt;&lt;/p&gt;" style="rounded=0;whiteSpace=wrap;html=1;fontSize=21;fillColor=#FFFFFF;opacity=70;strokeColor=#FFFF00;" vertex="1" parent="1">
          <mxGeometry x="465" y="630" width="60" height="40" as="geometry" />
        </mxCell>
        <mxCell id="JVa2_jhk8D2qSj3l92_B-70" style="edgeStyle=orthogonalEdgeStyle;rounded=0;orthogonalLoop=1;jettySize=auto;html=1;exitX=0.5;exitY=1;exitDx=0;exitDy=0;entryX=0;entryY=0.5;entryDx=0;entryDy=0;fontSize=12;strokeColor=#000000;" edge="1" parent="1" source="JVa2_jhk8D2qSj3l92_B-66" target="JVa2_jhk8D2qSj3l92_B-68">
          <mxGeometry relative="1" as="geometry" />
        </mxCell>
        <mxCell id="JVa2_jhk8D2qSj3l92_B-66" value="&lt;p style=&quot;line-height: 0.8&quot;&gt;&lt;font style=&quot;font-size: 12px&quot;&gt;Denunciar publicación/usuario&lt;br&gt;&lt;/font&gt;&lt;/p&gt;" style="rounded=0;whiteSpace=wrap;html=1;fontSize=21;fillColor=#FFFFFF;" vertex="1" parent="1">
          <mxGeometry x="75" y="670" width="110" height="50" as="geometry" />
        </mxCell>
        <mxCell id="JVa2_jhk8D2qSj3l92_B-69" value="" style="edgeStyle=orthogonalEdgeStyle;rounded=0;orthogonalLoop=1;jettySize=auto;html=1;fontSize=12;strokeColor=#000000;" edge="1" parent="1" source="JVa2_jhk8D2qSj3l92_B-67" target="JVa2_jhk8D2qSj3l92_B-68">
          <mxGeometry relative="1" as="geometry" />
        </mxCell>
        <mxCell id="JVa2_jhk8D2qSj3l92_B-67" value="&lt;p style=&quot;line-height: 0.8&quot;&gt;&lt;font style=&quot;font-size: 12px&quot;&gt;Detectar infracción en publicación&lt;br&gt;&lt;/font&gt;&lt;/p&gt;" style="rounded=0;whiteSpace=wrap;html=1;fontSize=21;fillColor=#FFFFFF;" vertex="1" parent="1">
          <mxGeometry x="365" y="720" width="110" height="50" as="geometry" />
        </mxCell>
        <mxCell id="JVa2_jhk8D2qSj3l92_B-77" style="edgeStyle=orthogonalEdgeStyle;rounded=0;orthogonalLoop=1;jettySize=auto;html=1;exitX=1;exitY=0.5;exitDx=0;exitDy=0;entryX=0;entryY=0.5;entryDx=0;entryDy=0;fontSize=12;strokeColor=#000000;" edge="1" parent="1" source="JVa2_jhk8D2qSj3l92_B-68" target="JVa2_jhk8D2qSj3l92_B-75">
          <mxGeometry relative="1" as="geometry" />
        </mxCell>
        <mxCell id="JVa2_jhk8D2qSj3l92_B-68" value="&lt;p style=&quot;line-height: 0.8&quot;&gt;&lt;font style=&quot;font-size: 12px&quot;&gt;Manda alerta al administrador&lt;br&gt;&lt;/font&gt;&lt;/p&gt;" style="rounded=0;whiteSpace=wrap;html=1;fontSize=21;fillColor=#FFFFFF;" vertex="1" parent="1">
          <mxGeometry x="365" y="790" width="110" height="50" as="geometry" />
        </mxCell>
        <mxCell id="JVa2_jhk8D2qSj3l92_B-72" style="edgeStyle=orthogonalEdgeStyle;rounded=0;orthogonalLoop=1;jettySize=auto;html=1;exitX=0;exitY=0.5;exitDx=0;exitDy=0;entryX=1;entryY=0.5;entryDx=0;entryDy=0;fontSize=12;strokeColor=#000000;" edge="1" parent="1" source="JVa2_jhk8D2qSj3l92_B-71" target="JVa2_jhk8D2qSj3l92_B-66">
          <mxGeometry relative="1" as="geometry" />
        </mxCell>
        <mxCell id="JVa2_jhk8D2qSj3l92_B-74" style="edgeStyle=orthogonalEdgeStyle;rounded=0;orthogonalLoop=1;jettySize=auto;html=1;exitX=0.5;exitY=1;exitDx=0;exitDy=0;entryX=0.5;entryY=0;entryDx=0;entryDy=0;fontSize=12;strokeColor=#000000;" edge="1" parent="1" source="JVa2_jhk8D2qSj3l92_B-71" target="JVa2_jhk8D2qSj3l92_B-67">
          <mxGeometry relative="1" as="geometry" />
        </mxCell>
        <mxCell id="JVa2_jhk8D2qSj3l92_B-71" value="" style="rounded=0;whiteSpace=wrap;html=1;fontSize=21;fillColor=#000000;" vertex="1" parent="1">
          <mxGeometry x="310" y="690" width="220" height="10" as="geometry" />
        </mxCell>
        <mxCell id="JVa2_jhk8D2qSj3l92_B-79" value="" style="edgeStyle=orthogonalEdgeStyle;rounded=0;orthogonalLoop=1;jettySize=auto;html=1;fontSize=12;strokeColor=#000000;" edge="1" parent="1" source="JVa2_jhk8D2qSj3l92_B-75" target="JVa2_jhk8D2qSj3l92_B-78">
          <mxGeometry relative="1" as="geometry" />
        </mxCell>
        <mxCell id="JVa2_jhk8D2qSj3l92_B-75" value="&lt;p style=&quot;line-height: 0.8&quot;&gt;&lt;font style=&quot;font-size: 12px&quot;&gt;Verifica la alerta&lt;br&gt;&lt;/font&gt;&lt;/p&gt;" style="rounded=0;whiteSpace=wrap;html=1;fontSize=21;fillColor=#FFFFFF;" vertex="1" parent="1">
          <mxGeometry x="645" y="790" width="110" height="50" as="geometry" />
        </mxCell>
        <mxCell id="JVa2_jhk8D2qSj3l92_B-81" style="edgeStyle=orthogonalEdgeStyle;rounded=0;orthogonalLoop=1;jettySize=auto;html=1;exitX=0;exitY=0.5;exitDx=0;exitDy=0;entryX=1;entryY=0.5;entryDx=0;entryDy=0;fontSize=12;strokeColor=#000000;" edge="1" parent="1" source="JVa2_jhk8D2qSj3l92_B-78" target="JVa2_jhk8D2qSj3l92_B-80">
          <mxGeometry relative="1" as="geometry" />
        </mxCell>
        <mxCell id="JVa2_jhk8D2qSj3l92_B-83" style="edgeStyle=orthogonalEdgeStyle;rounded=0;orthogonalLoop=1;jettySize=auto;html=1;exitX=0.5;exitY=1;exitDx=0;exitDy=0;entryX=1;entryY=0.5;entryDx=0;entryDy=0;fontSize=12;strokeColor=#000000;" edge="1" parent="1" source="JVa2_jhk8D2qSj3l92_B-78" target="JVa2_jhk8D2qSj3l92_B-82">
          <mxGeometry relative="1" as="geometry" />
        </mxCell>
        <mxCell id="JVa2_jhk8D2qSj3l92_B-78" value="" style="rhombus;whiteSpace=wrap;html=1;fontSize=12;fillColor=#FFFFFF;" vertex="1" parent="1">
          <mxGeometry x="680" y="880" width="40" height="40" as="geometry" />
        </mxCell>
        <mxCell id="JVa2_jhk8D2qSj3l92_B-80" value="&lt;p style=&quot;line-height: 0.8&quot;&gt;&lt;font style=&quot;font-size: 12px&quot;&gt;Restringir acceso al perfil (correo)&lt;br&gt;&lt;/font&gt;&lt;/p&gt;" style="rounded=0;whiteSpace=wrap;html=1;fontSize=21;fillColor=#FFFFFF;" vertex="1" parent="1">
          <mxGeometry x="365" y="875" width="110" height="50" as="geometry" />
        </mxCell>
        <mxCell id="JVa2_jhk8D2qSj3l92_B-82" value="&lt;p style=&quot;line-height: 0.8&quot;&gt;&lt;font style=&quot;font-size: 12px&quot;&gt;Eliminar alerta&lt;br&gt;&lt;/font&gt;&lt;/p&gt;" style="rounded=0;whiteSpace=wrap;html=1;fontSize=21;fillColor=#FFFFFF;" vertex="1" parent="1">
          <mxGeometry x="365" y="950" width="110" height="50" as="geometry" />
        </mxCell>
        <mxCell id="JVa2_jhk8D2qSj3l92_B-84" value="Si ocurre infración" style="text;html=1;strokeColor=none;fillColor=none;align=center;verticalAlign=middle;whiteSpace=wrap;rounded=0;fontSize=12;" vertex="1" parent="1">
          <mxGeometry x="525" y="875" width="190" height="30" as="geometry" />
        </mxCell>
        <mxCell id="JVa2_jhk8D2qSj3l92_B-85" value="No ocurre infración" style="text;html=1;strokeColor=none;fillColor=none;align=center;verticalAlign=middle;whiteSpace=wrap;rounded=0;fontSize=12;" vertex="1" parent="1">
          <mxGeometry x="525" y="950" width="190" height="30" as="geometry" />
        </mxCell>
      </root>
    </mxGraphModel>
  </diagram>
</mxfile>
